# xmcd
#
# Track frame offsets:
#	150
#	16904
#	33233
#	49970
#	63113
#	76973
#	95680
#	113599
#	130924
#	151503
#	163970
#	183535
#	204168
#	225821
#
# Disc length: 3215 seconds
#
# Revision: 0
# Processed by: cddbd v1.5.2PL0 Copyright (c) Steve Scherf et al.
# Submitted via: EasyCDDAExtractor 16.0.3.1
#
DISCID=a00c8d0e
DTITLE=Dwight Yoakam - 3 Pears
DYEAR=2012
DGENRE=Country
TTITLE0=Take Hold Of My Hand
TTITLE1=Waterfall
TTITLE2=Dim Lights, Thick Smoke
TTITLE3=Trying
TTITLE4=Nothing But Love
TTITLE5=It's Never Alright
TTITLE6=A Heart Like Mine
TTITLE7=Long Way To Go
TTITLE8=Missing Heart
TTITLE9=3 Pears
TTITLE10=Rock It All Away
TTITLE11=Long Way To Go ( Reprise )
TTITLE12=Ring Of Fire 
TTITLE13=To Love Somebody
EXTD=
EXTT0=
EXTT1=
EXTT2=
EXTT3=
EXTT4=
EXTT5=
EXTT6=
EXTT7=
EXTT8=
EXTT9=
EXTT10=
EXTT11=
EXTT12=
EXTT13=
PLAYORDER=
